Coordinates
version=1
nRows=13
nColumns=63
inDegrees=yes

Units are S.I. units (second, meters, Newtons, ...)
If the header above contains a line with 'inDegrees', this indicates whether rotational values are in degrees (yes) or radians (no).

endheader
time	pelvis_tilt	pelvis_list	pelvis_rotation	pelvis_tx	pelvis_ty	pelvis_tz	hip_flexion_r	hip_adduction_r	hip_rotation_r	knee_angle_r	knee_angle_r_beta	ankle_angle_r	subtalar_angle_r	mtp_angle_r	hip_flexion_l	hip_adduction_l	hip_rotation_l	knee_angle_l	knee_angle_l_beta	ankle_angle_l	subtalar_angle_l	mtp_angle_l	L5_S1_Flex_Ext	L5_S1_Lat_Bending	L5_S1_axial_rotation	L4_L5_Flex_Ext	L4_L5_Lat_Bending	L4_L5_axial_rotation	L3_L4_Flex_Ext	L3_L4_Lat_Bending	L3_L4_axial_rotation	L2_L3_Flex_Ext	L2_L3_Lat_Bending	L2_L3_axial_rotation	L1_L2_Flex_Ext	L1_L2_Lat_Bending	L1_L2_axial_rotation	L1_T12_Flex_Ext	L1_T12_Lat_Bending	L1_T12_axial_rotation	Abs_r3	Abs_r2	Abs_r1	Abs_t1	Abs_t2	neck_flexion	neck_bending	neck_rotation	arm_flex_r	arm_add_r	arm_rot_r	elbow_flex_r	pro_sup_r	wrist_flex_r	wrist_dev_r	arm_flex_l	arm_add_l	arm_rot_l	elbow_flex_l	pro_sup_l	wrist_flex_l	wrist_dev_l
0.949153	-0.550900	1.586669	88.539861	0.259661	0.960981	0.356916	-0.348038	-3.305565	-15.516809	11.531611	0.201265	27.100232	18.011184	0.000000	-1.902741	2.684731	-2.022091	6.393035	0.111580	14.095253	-17.240631	0.000000	0.189399	-0.740911	1.846470	0.351734	-0.985412	1.961874	0.311164	-1.801451	1.961874	0.216465	-1.801451	1.615661	0.175876	-1.510866	1.500257	0.108223	-1.147671	1.384852	1.352862	-8.381335	10.269512	0.000000	0.000000	13.629434	6.667043	-25.771042	42.809404	-63.541907	-7.015574	123.523828	85.397696	-9.732980	10.621895	58.769589	-26.508702	39.489107	85.843811	88.744381	-10.410675	-1.581320
0.966102	-0.455342	1.440049	88.598229	0.258822	0.961012	0.356164	-0.381437	-3.268964	-15.800044	11.402804	0.199016	26.623472	18.007663	0.000000	-1.847343	2.640549	-1.814608	6.306555	0.110070	14.226524	-17.280765	0.000000	0.242908	-0.688094	1.890134	0.451105	-0.915165	2.008268	0.399074	-1.673032	2.008268	0.277620	-1.673032	1.653867	0.225565	-1.403161	1.535734	0.138798	-1.065858	1.417601	1.735069	-7.783856	10.512360	0.000000	0.000000	14.143277	5.937853	-23.877855	52.991263	-60.990681	-0.548930	121.779391	84.797573	-10.355724	9.853119	65.195174	-25.497511	41.914881	86.577126	88.807426	-11.078171	-2.816106
0.983051	-0.389891	1.367862	88.641874	0.258035	0.961053	0.355659	-0.435749	-3.269834	-16.013840	11.341583	0.197948	26.296208	18.010974	0.000000	-1.838532	2.625248	-1.619907	6.228583	0.108709	14.437776	-17.312650	0.000000	0.279496	-0.629830	1.865256	0.519051	-0.837673	1.981834	0.459183	-1.531367	1.981834	0.319436	-1.531367	1.632099	0.259540	-1.284348	1.515520	0.159704	-0.975606	1.398942	1.996410	-7.124757	10.373992	0.000000	0.000000	14.582916	5.063888	-21.384079	62.684197	-57.311821	5.677152	119.383133	84.220179	-10.351393	9.515672	71.100403	-24.983047	43.630919	87.229230	88.883355	-12.096690	-4.018604
1.000000	-0.379384	1.326676	88.712115	0.257312	0.961071	0.355423	-0.468848	-3.327340	-16.191999	11.342712	0.197968	26.119293	18.030055	0.000000	-1.825023	2.659107	-1.426160	6.160169	0.107515	14.689103	-17.302840	0.000000	0.303055	-0.573653	1.779920	0.562804	-0.762958	1.891165	0.497889	-1.394779	1.891165	0.346362	-1.394779	1.557430	0.281417	-1.169793	1.446185	0.173166	-0.888588	1.334940	2.164693	-6.489275	9.899380	0.000000	0.000000	14.907434	4.191767	-18.485126	71.271559	-52.617911	11.144704	116.487730	83.681108	-10.497449	9.181095	76.609820	-24.992156	44.804079	87.877446	88.955518	-13.147203	-4.898639
1.016949	-0.387795	1.312549	88.800310	0.256615	0.961098	0.355503	-0.479137	-3.401207	-16.328237	11.381542	0.198645	26.042127	18.059370	0.000000	-1.796603	2.706319	-1.249758	6.111670	0.106669	14.987682	-17.235884	0.000000	0.314264	-0.515909	1.647083	0.583620	-0.686159	1.750026	0.516304	-1.254381	1.750026	0.359172	-1.254381	1.441198	0.291826	-1.052042	1.338255	0.179570	-0.799143	1.235313	2.244756	-5.836067	9.160584	0.000000	0.000000	15.051924	3.344856	-15.215076	78.568389	-47.137411	15.633781	113.197853	83.174374	-10.830548	8.900551	81.666128	-25.514570	45.445397	88.586939	89.012553	-14.145626	-5.377808
1.033898	-0.394766	1.341641	88.901957	0.255913	0.961170	0.355937	-0.482547	-3.470979	-16.423231	11.451256	0.199862	26.045471	18.102736	0.000000	-1.767150	2.748252	-1.094781	6.094775	0.106374	15.316892	-17.120391	0.000000	0.310804	-0.455560	1.481619	0.577195	-0.605894	1.574220	0.510620	-1.107648	1.574220	0.355218	-1.107648	1.296417	0.288613	-0.928977	1.203815	0.177594	-0.705662	1.111214	2.220045	-5.153382	8.240320	0.000000	0.000000	14.998906	2.580898	-11.690427	84.478298	-41.195207	18.984250	109.601273	82.809626	-11.398120	8.699831	86.325620	-26.493661	45.655284	89.387987	89.056228	-14.916215	-5.316411
1.050847	-0.398730	1.413130	89.008586	0.255208	0.961284	0.356660	-0.489009	-3.533863	-16.480310	11.536443	0.201349	26.121766	18.156333	0.000000	-1.755912	2.786383	-0.945966	6.087875	0.106253	15.657545	-16.992623	0.000000	0.296446	-0.395469	1.300303	0.550530	-0.525974	1.381572	0.487031	-0.961544	1.381572	0.338808	-0.961544	1.137765	0.275280	-0.806441	1.056496	0.169389	-0.612582	0.975227	2.117484	-4.473628	7.231895	0.000000	0.000000	14.722078	1.977657	-8.081482	89.078569	-35.221086	21.265784	105.821080	82.580301	-12.360165	8.575726	90.667322	-27.806462	45.641552	90.208519	89.089497	-15.643088	-4.874342
1.067797	-0.372661	1.554011	89.120130	0.254447	0.961439	0.357653	-0.529524	-3.566360	-16.507975	11.637565	0.203114	26.272433	18.223427	0.000000	-1.799040	2.796323	-0.784741	6.094395	0.106367	16.013398	-16.873036	0.000000	0.269531	-0.332074	1.105415	0.500546	-0.441658	1.174504	0.442812	-0.807404	1.174504	0.308047	-0.807404	0.967238	0.250286	-0.677164	0.898150	0.154010	-0.514382	0.829061	1.925232	-3.756482	6.147988	0.000000	0.000000	14.253922	1.464849	-4.376057	93.107499	-29.600836	23.167115	101.900474	82.502546	-13.670686	8.490936	94.594944	-29.361036	45.352976	91.001253	89.115054	-16.494286	-4.297285
1.084746	-0.297398	1.745234	89.263954	0.253499	0.961555	0.358822	-0.608469	-3.551006	-16.541083	11.727392	0.204682	26.491306	18.298647	0.000000	-1.880990	2.764086	-0.595449	6.124431	0.106891	16.397084	-16.759656	0.000000	0.234689	-0.259684	0.902565	0.435840	-0.345379	0.958976	0.385570	-0.631395	0.958976	0.268226	-0.631395	0.789745	0.217932	-0.529547	0.733334	0.134101	-0.402250	0.676924	1.676358	-2.937594	5.019797	0.000000	0.000000	13.678051	0.893786	-0.367168	97.047577	-24.425671	25.134328	97.910612	82.621321	-15.286564	8.343743	98.124051	-31.166276	44.857270	91.744903	89.132331	-17.480080	-3.696194
1.101695	-0.194105	1.974422	89.441827	0.252426	0.961589	0.360054	-0.722897	-3.507196	-16.587390	11.812261	0.206163	26.787364	18.379773	0.000000	-2.008875	2.707231	-0.361565	6.158710	0.107490	16.773758	-16.671810	0.000000	0.194544	-0.185405	0.720447	0.361288	-0.246589	0.765475	0.319616	-0.450794	0.765475	0.222344	-0.450794	0.630391	0.180654	-0.378078	0.585363	0.111162	-0.287193	0.540335	1.389609	-2.097342	4.006911	0.000000	0.000000	13.089636	0.299652	3.643510	100.936539	-19.904856	27.127006	94.092692	82.965049	-17.069119	8.156540	101.316557	-33.003313	44.278247	92.284645	89.132388	-18.698965	-3.326107
1.118644	-0.086939	2.216423	89.659723	0.251315	0.961526	0.361216	-0.868280	-3.448741	-16.637762	11.874351	0.207247	27.142369	18.448092	0.000000	-2.171257	2.643256	-0.064305	6.182702	0.107909	17.103629	-16.636961	0.000000	0.151901	-0.118800	0.597742	0.282096	-0.158004	0.635101	0.249558	-0.288851	0.635101	0.173608	-0.288851	0.523024	0.141055	-0.242258	0.485665	0.086796	-0.184022	0.448307	1.085015	-1.343893	3.324463	0.000000	0.000000	12.592933	-0.205501	7.206745	104.306023	-16.292714	28.553864	90.770832	83.532925	-18.772782	8.005931	104.249962	-34.658704	43.682624	92.572055	89.123281	-19.910004	-3.097976
1.135593	0.021010	2.416773	89.938846	0.250119	0.961321	0.362211	-0.995231	-3.384817	-16.744097	11.929580	0.208210	27.521027	18.507025	0.000000	-2.312167	2.577764	0.295401	6.198138	0.108178	17.372785	-16.639520	0.000000	0.114723	-0.059456	0.541308	0.213052	-0.079076	0.575140	0.188478	-0.144561	0.575140	0.131117	-0.144561	0.473645	0.106532	-0.121242	0.439813	0.065553	-0.092097	0.405981	0.819455	-0.672576	3.010595	0.000000	0.000000	12.176300	-0.628362	10.418654	107.172308	-13.732697	29.426045	88.121649	84.291001	-20.353688	7.832262	106.934762	-36.168435	43.183466	92.611512	89.094277	-21.253774	-3.255212
1.152542	0.096634	2.545060	90.278084	0.248939	0.961014	0.362893	-1.099320	-3.337328	-16.892802	11.941316	0.208415	27.884334	18.546091	0.000000	-2.426218	2.538241	0.719854	6.159907	0.107511	17.533220	-16.682171	0.000000	0.087903	-0.019395	0.574731	0.163245	-0.025795	0.610652	0.144416	-0.047157	0.610652	0.100464	-0.047157	0.502890	0.081627	-0.039550	0.466969	0.050228	-0.030043	0.431048	0.627883	-0.219398	3.196483	0.000000	0.000000	11.892952	-0.787114	12.744707	109.274025	-12.478234	29.412669	86.415870	85.155200	-21.655262	7.745351	109.399874	-37.357590	42.824677	92.374446	89.059851	-22.599017	-3.685010
